<svg width="677" height="593" viewBox="0 0 677 593" fill="none" xmlns="http://www.w3.org/2000/svg">
<path d="M278.241 591.742C234.72 590.544 193.932 580.431 156.978 561.69C69.4582 517.307 8.10803 427.103 0.774758 331.962C-1.95724 296.638 2.54816 261.122 14.0993 226.469C23.829 199.532 41.8027 166.029 74.9223 141.441C88.6302 131.28 101.332 125.337 109.959 121.263C137.95 108.082 168.769 100.221 199.875 98.3042C200.307 89.5809 201.026 80.9056 202.128 72.3262C203.566 60.823 205.579 49.3198 208.167 38.0563C209.653 31.5858 211.331 25.1632 213.152 18.9323L218.664 0L236.638 8.05222C254.563 16.0565 272.297 25.1152 289.313 34.9409L295.064 38.248C300.624 41.4114 306.184 44.5748 311.744 47.6902C321.617 53.2501 331.491 58.8579 341.316 64.5615C342.563 65.2805 344.671 66.5267 344.671 66.5267C344.671 66.5267 346.589 67.5811 347.547 68.1083C349.848 69.3066 351.909 70.3131 354.018 71.2717C356.271 72.2782 358.619 73.2848 360.968 74.1475C368.109 76.7836 373.286 77.7902 380.475 79.2281L386.083 80.3784C386.706 80.5222 401.516 83.6376 426.056 91.2105C429.795 92.3609 433.438 93.5112 436.984 94.6615L443.934 96.9621C445.756 97.5852 447.529 98.2083 449.254 98.8314C466.797 105.11 480.409 111.964 493.398 121.167C501.881 127.158 505.812 131.136 509.934 135.354C513.72 139.236 518.034 143.598 528.387 151.746C533.659 155.868 538.021 160.325 542.238 164.639C545.929 168.426 549.428 172.02 553.023 174.8C557.288 178.059 560.835 182.373 563.28 187.166C564.813 190.138 565.868 193.157 566.443 196.129C570.325 198.142 573.153 200.203 574.927 201.545C583.123 207.632 589.545 212.377 592.037 213.767C595.201 215.493 598.652 216.931 602.151 218.033C605.266 219.039 606.464 219.231 608.477 219.567C610.826 219.95 613.798 220.382 618.543 221.771C625.541 223.832 629.087 225.75 631.675 227.188C633.497 228.194 634.599 228.769 638.242 229.824L639.296 230.111C643.37 231.262 650.176 233.179 656.647 237.54C660.481 240.129 662.926 242.717 664.891 244.874C667.623 247.654 669.684 250.913 671.122 254.556C671.361 255.227 671.553 255.85 671.745 256.473L673.087 256.904L675.867 265.484C677.784 271.571 678.215 281.252 669.348 292.947C667.383 295.536 665.658 297.069 664.076 298.315L663.884 298.699C662.926 300.952 661.68 303.588 658.9 306.895C656.311 310.202 652.765 313.174 648.691 315.331C646.438 323.479 642.46 330.908 636.996 337.043C631.915 342.746 625.54 347.348 618.495 350.319C615.667 351.518 608.238 354.729 599.035 354.729C597.502 354.729 596.016 354.633 594.482 354.489C592.804 356.502 591.079 358.42 589.353 360.337C581.493 368.772 572.674 378.262 558.199 384.35C549.811 387.848 540.944 389.718 531.886 389.909L527.955 390.005C526.661 398.968 523.594 409.273 517.123 419.578C513.385 425.473 508.927 430.794 503.799 435.395C503.655 437.312 503.463 439.229 503.176 441.146C502.696 444.358 501.498 450.876 498.91 456.724C493.925 467.987 485.25 474.266 476.574 479.442C467.372 484.906 459.607 489.46 452.178 493.055L448.488 494.732C448.2 494.876 447.433 495.211 446.666 495.547C443.167 496.985 440.052 498.087 436.936 498.95L436.17 499.237L435.259 499.381C434.636 499.525 432.815 499.956 432.815 499.956C432.191 500.1 431.425 500.244 430.658 500.388C426.44 501.155 422.366 501.49 418.196 501.49C417.141 501.49 416.039 501.49 414.937 501.442C411.054 501.298 405.399 500.148 388.719 496.697L387.473 496.41C370.41 491.936 361.159 489.332 359.721 488.597L362.837 475.848C355.024 472.253 348.074 467.46 341.987 461.469L347.164 452.745C345.918 452.362 344.719 451.979 343.473 451.547L310.258 440.14C298.707 462.236 298.755 486.344 298.803 495.499C298.851 525.647 309.012 549.66 317.495 564.614L331.347 589.01L309.012 590.017L310.785 592.749L278.385 591.838L278.241 591.742Z" fill="white"/>
<path d="M659.575 270.657H659.479C658.616 267.925 656.268 266.392 655.645 262.701C655.549 262.03 655.357 261.359 655.118 260.688C654.542 259.202 653.68 257.812 652.529 256.71C650.708 254.745 649.318 253.259 647.065 251.725C642.416 248.562 637.048 247.268 633.501 246.261C622.669 243.146 624.251 241.276 613.754 238.161C605.846 235.86 604.983 236.915 596.979 234.279C592.425 232.841 588.016 230.972 583.798 228.671C580.395 226.802 575.171 222.967 564.77 215.251C562.182 213.333 557.964 210.17 551.589 208.684C550.439 208.397 549.289 208.205 548.09 208.061C548.713 207.102 549.145 206.048 549.48 204.946C550.726 200.44 548.761 196.414 547.994 194.88C546.7 192.292 544.831 190.039 542.53 188.314C533.615 181.412 526.666 172.162 517.799 165.164C495.895 147.957 498.291 145.561 483.481 135.064C470.108 125.622 457.071 119.726 443.459 114.885C441.83 114.31 440.152 113.735 438.475 113.16C437.947 112.968 437.468 112.824 436.941 112.633C435.743 112.249 434.544 111.818 433.346 111.434C432.819 111.243 432.244 111.099 431.717 110.907C428.17 109.757 424.575 108.655 420.932 107.552C396.872 100.123 382.493 97.1034 382.493 97.1034C372.427 94.9945 365.382 93.988 354.885 90.1536C352.153 89.1471 349.517 88.0447 346.881 86.8464C344.484 85.7441 342.088 84.5937 339.787 83.3476C339.691 83.3476 339.595 83.2517 339.5 83.2038C338.445 82.6286 337.391 82.0535 336.384 81.4783L336.001 81.2866C334.898 80.6635 333.748 79.9925 332.646 79.3214C317.404 70.4065 301.923 61.875 286.585 53.1038C284.62 52.0014 282.703 50.899 280.738 49.7487C264.154 40.1628 247.091 31.4875 229.644 23.627C228.254 28.4199 226.577 34.555 224.947 41.7924C223.078 49.9884 220.873 61.1081 219.196 74.3847C217.806 85.6003 216.703 99.3082 216.703 114.933C196.045 114.79 158.612 117.33 117.345 136.741C83.2665 152.798 60.2602 173.935 47.0315 188.17C44.5392 193.442 42.0468 198.667 39.5545 203.939C52.879 193.538 70.7089 181.7 93.2838 171.778C106.848 165.787 119.597 161.617 130.909 158.693C118.83 163.63 105.314 170.196 91.2229 179.064C63.6632 196.366 43.8682 216.017 30.4478 231.882C23.7855 251.725 14.583 287.049 17.9381 330.618C25.0796 422.979 85.1837 505.993 164.843 546.398C185.98 557.134 224.851 573.095 278.82 574.629C268.755 558.908 257.156 535.566 253.465 505.801C252.603 498.804 252.267 492.189 252.267 486.006C253.178 496.982 255.766 513.422 263.962 531.684C272.877 551.622 284.62 565.378 292.72 573.478C296.027 573.335 299.286 573.191 302.594 573.047C294.158 558.237 281.696 531.156 281.648 495.928C281.648 484.185 281.169 442.294 309.256 411.859C314.672 406.011 322.676 397.528 335.857 393.454C351.194 388.709 372.811 390.051 382.397 402.656C383.978 404.717 386.231 407.689 386.135 411.619C385.896 421.349 371.325 430.887 349.085 435.249C354.837 437.214 360.732 438.7 366.724 439.754C374.201 441 381.774 441.527 389.347 441.24C386.087 444.355 382.301 446.8 378.131 448.477C367.347 452.791 357.473 450.299 354.022 449.244C358.911 454.037 364.663 457.919 370.941 460.699C380.815 464.917 391.647 466.307 402.288 464.678C399.124 467.266 395.625 469.327 391.839 470.908C381.63 475.126 372.284 474.168 367.73 473.401C367.73 473.401 367.73 473.401 367.682 473.401C368.114 473.64 391.887 479.871 391.887 479.871C406.074 482.795 413.168 484.233 415.756 484.329C419.926 484.521 423.808 484.233 427.595 483.562C428.266 483.418 428.937 483.322 429.608 483.131C429.608 483.131 429.704 483.131 429.751 483.131C430.422 482.987 431.093 482.795 431.717 482.651C431.717 482.651 431.717 482.651 431.765 482.651C434.497 481.932 437.276 480.974 440.056 479.823C440.056 479.823 440.152 479.823 440.2 479.775C440.823 479.488 441.494 479.248 442.117 478.961C442.213 478.961 442.261 478.913 442.357 478.865C443.028 478.577 443.699 478.242 444.37 477.954C444.562 477.858 444.753 477.762 444.993 477.667C451.799 474.407 459.18 470.046 468.047 464.773C474.326 461.035 480.317 456.961 483.433 449.867C485.398 445.458 486.261 439.85 486.405 438.652C486.932 435.105 487.123 431.558 486.98 427.963C486.98 427.724 486.98 427.436 486.98 427.196C487.315 426.957 487.603 426.765 487.938 426.525C493.882 422.212 498.962 416.796 502.892 410.565C511.711 396.569 512.047 382.574 511.855 376.63C511.855 376.63 511.855 376.535 511.855 376.487C511.759 376.582 511.664 376.678 511.52 376.774C510.897 377.349 510.226 377.877 509.555 378.452C509.411 378.548 509.315 378.643 509.171 378.739C508.5 379.267 507.829 379.794 507.158 380.321C507.11 380.321 507.014 380.417 506.966 380.465C506.2 381.04 505.433 381.615 504.666 382.142C503.851 382.718 503.036 383.293 502.221 383.82C499.106 385.881 495.895 387.702 492.54 389.332C485.206 392.879 477.442 395.419 469.389 396.809C471.115 395.563 472.553 393.933 473.607 392.064C475.429 388.757 476.052 384.874 475.333 381.136C473.128 382.19 470.779 382.765 468.383 382.861C464.596 383.005 460.858 381.951 457.695 379.89C459.995 378.068 461.817 375.72 463.063 373.036C463.925 371.166 464.453 369.153 464.692 367.092C462.631 366.565 460.522 366.086 458.461 365.607L452.758 363.737C450.984 357.89 450.313 351.803 450.793 345.716C451.176 340.875 452.039 329.372 460.762 319.738C469.054 310.583 480.653 308.666 488.849 307.18C491.869 306.653 494.888 306.317 497.908 306.174C498.962 309.193 499.729 312.309 500.16 315.52C500.831 320.552 500.64 325.681 499.681 330.666C502.701 330.234 505.72 329.611 508.644 328.653C510.465 328.077 512.239 327.406 514.012 326.687C513.725 328.269 513.197 329.755 512.383 331.145C511.232 333.158 509.603 334.883 507.637 336.13C510.226 336.417 512.862 336.513 515.45 336.369C515.977 336.369 516.552 336.321 517.08 336.273C517.607 336.273 518.134 336.178 518.709 336.13C518.853 336.13 518.949 336.13 519.093 336.13C519.524 336.082 519.955 336.034 520.339 335.986C520.914 335.89 521.441 335.794 522.016 335.698C522.016 335.698 522.064 335.698 522.112 335.698C525.659 335.027 529.11 334.021 532.465 332.583C532.034 334.021 531.411 335.411 530.596 336.705C527.672 341.258 523.119 343.127 520.674 343.894C520.579 343.894 520.531 343.894 520.483 343.942C520.387 343.942 520.243 343.99 520.147 344.038C520.003 344.038 519.812 344.134 519.716 344.134C520.003 344.134 520.339 344.23 520.626 344.23C525.036 344.709 529.493 344.565 533.903 343.751C539.223 342.744 544.304 340.827 548.953 338.047C548.857 341.21 548.474 344.374 547.707 347.489C544.591 360.478 536.491 368.866 531.89 372.844C538.792 372.7 545.55 371.262 551.925 368.626C562.996 363.977 569.898 356.548 577.184 348.735C581.306 344.326 585.092 339.629 588.495 334.692C589.645 335.411 590.844 335.986 592.09 336.417C600.669 339.581 609.009 336.034 612.125 334.692C616.87 332.631 621.135 329.611 624.586 325.729C632.734 316.622 633.741 305.838 633.933 302.004C635.85 302.004 637.767 301.716 639.54 300.997C642.129 299.943 644.429 298.217 646.155 296.012C648.839 292.801 648.12 291.555 650.9 287.912C653.296 284.749 654.015 285.468 656.124 282.688C657.274 281.202 661.54 275.642 659.959 270.753L659.575 270.657Z" fill="#010101"/>
<path d="M385.369 176.863C380.768 164.066 374.441 151.94 366.532 140.868C351.099 119.252 333.509 107.173 324.354 100.942C318.315 96.8684 314.241 94.6157 305.182 89.5831C291.043 81.7226 270.481 70.2674 244.359 55.457C243.544 60.5376 242.538 67.775 241.771 76.5462C239.566 100.99 238.032 117.91 242.73 135.308C250.255 163.203 270.529 180.314 270.912 180.075C271.104 179.931 264.538 172.406 259.697 159.752C256.581 151.461 254.808 142.689 254.472 133.822C256.246 136.794 258.355 139.574 260.799 142.018C264.346 145.613 268.516 148.489 273.117 150.598C267.126 141.108 262.764 130.707 260.08 119.827C257.3 108.563 256.437 96.8684 257.492 85.3173C260.799 96.8205 266.263 107.557 273.548 117.047C283.47 129.796 296.411 139.862 311.221 146.332C307.147 146.572 303.025 146.14 299.095 145.038C294.829 143.84 290.755 141.875 287.161 139.286C293.2 148.633 300.293 157.26 308.25 165.025C320.04 176.48 333.652 185.97 348.511 193.016C337.822 190.475 327.374 187.216 317.165 183.142C305.47 178.493 294.158 172.885 283.422 166.367C286.825 172.885 290.995 178.972 295.836 184.484C300.341 189.565 305.422 194.118 310.934 198.096C299.814 198.192 288.934 201.212 279.396 206.867C269.379 212.907 261.23 221.63 255.91 232.031C264.921 225.273 275.034 220.048 285.771 216.549C300.437 211.852 316.014 210.51 331.304 212.619C310.886 219.185 291.858 229.538 275.37 243.246C258.546 257.146 244.647 274.209 234.342 293.429C243.736 284.514 253.897 276.462 264.729 269.368C280.067 259.399 296.603 251.442 313.953 245.691C295.644 259.974 280.019 277.372 267.893 297.167C257.827 313.559 250.302 331.341 245.509 349.938C253.418 340.352 262.237 331.533 271.823 323.625C285.531 312.313 300.725 302.919 316.973 295.634C308.537 304.405 300.773 313.751 293.679 323.625C286.921 333.019 280.834 342.844 275.418 353.101C284.045 346.535 293.535 341.119 303.6 337.045C317.069 331.629 331.4 328.657 345.923 328.274C338.398 332.06 331.304 336.566 324.642 341.694C318.363 346.583 312.563 351.999 307.291 357.942C317.26 357.942 327.182 358.853 336.96 360.722C353.016 363.79 374.585 367.912 389.922 384.591C389.922 384.591 399.364 394.848 402.24 408.269C403.295 413.206 403.007 416.561 402.048 419.484C400.994 422.648 399.125 425.476 396.632 427.68C399.029 427.824 401.425 427.632 403.726 427.105C407.273 426.29 410.676 424.805 413.599 422.648C412.353 428.016 410.34 433.144 407.656 437.937C404.397 443.641 400.179 448.769 395.146 453.035C402 452.748 408.806 451.837 415.469 450.255C423.281 448.386 430.854 445.654 438.044 442.059C436.462 446.613 434.257 450.926 431.525 454.905C427.93 460.129 423.425 464.682 418.297 468.325C420.741 468.325 423.138 468.229 425.582 467.941C448.924 465.066 464.501 446.948 471.307 437.698C467.473 435.924 463.734 433.911 460.091 431.754C450.793 426.099 442.309 419.197 434.928 411.24C427.307 402.949 421.7 392.164 410.484 370.596C401.329 352.958 401.521 350.609 396.68 343.755C394.284 340.4 392.51 336.709 389.011 329.376C387.861 327.171 387.19 324.775 386.95 322.283C386.759 319.886 387.046 317.49 387.717 315.189C388.197 313.559 388.868 311.978 389.778 310.54C390.593 309.198 391.504 307.952 392.558 306.801C394.907 304.213 397.399 301.817 400.035 299.516C404.78 295.586 407.56 293.285 411.778 290.745C417.482 287.342 423.617 284.754 430.039 283.076C433.922 282.069 439.194 280.775 446.096 281.015C448.684 281.111 448.828 281.35 457.839 282.309C465.124 283.124 468.767 283.507 470.157 283.411C473.416 283.22 477.873 281.782 486.74 278.954C490.479 277.756 492.732 276.941 496.278 276.701C498.963 276.51 501.647 276.701 504.283 277.276C512.623 278.906 520.866 281.159 528.919 284.035C559.019 295.202 563.045 296.928 569.036 300.091C575.315 303.398 578.574 304.98 580.779 306.849C582.408 308.239 583.99 309.773 585.428 311.307C587.393 313.32 588.256 314.326 590.269 316.339C592.905 318.975 593.145 319.694 594.391 320.27C595.397 320.701 596.883 321.036 599.807 320.461C601.005 320.222 605.559 319.215 610.831 315.237C612.556 313.895 616.822 310.684 619.027 305.891C619.746 304.357 620.369 302.823 620.896 301.241C621.663 298.893 621.711 298.174 622.382 296.592C622.67 295.969 623.149 294.915 625.162 292.326C628.517 288.013 629.38 287.965 630.386 286C631.105 284.61 631.776 282.357 631.297 278.906C629.092 280.488 627.127 282.453 625.545 284.706C624.012 286.862 622.813 289.259 621.999 291.799C620.465 289.978 619.123 287.965 618.068 285.856C617.493 284.658 616.151 281.782 614.713 269.608C613.994 263.569 614.09 262.37 614.713 261.028C616.391 257.386 620.225 255.852 622.19 255.277C619.842 254.366 615.959 252.928 611.166 251.346C595.206 246.074 590.652 246.458 580.204 242.384C573.254 239.651 566.64 236.153 560.457 231.935C553.315 227.238 546.749 221.726 540.853 215.543C538.792 217.077 536.54 218.323 534.143 219.281C528.679 221.342 522.688 221.822 516.984 220.575C520.723 219.521 524.078 217.46 526.714 214.584C529.59 211.373 531.459 207.347 531.938 203.033C530.836 200.397 529.494 197.857 528.008 195.364C522.256 185.922 515.211 180.602 509.555 176.336C499.25 168.667 488.466 160.663 476.723 152.275C464.453 146.572 451.704 141.012 438.475 135.5C410.005 123.709 382.541 113.788 356.419 105.496C363.896 110.672 370.271 117.287 375.256 124.907C389.395 146.811 386.663 170.057 385.513 177.151V177.103L385.369 176.863Z" fill="#24B5B4"/>
<path d="M428.075 304.645C430.28 308.91 431.718 313.512 432.341 318.257C433.108 324.296 432.533 330.383 430.663 336.182C431.143 329.999 429.896 323.816 427.117 318.257C425.056 314.231 420.982 306.226 414.415 306.13C410.389 306.13 406.698 309.054 404.733 311.93C403.535 313.703 402.768 315.764 402.481 317.921C401.905 323.625 405.788 326.884 410.149 334.169C412.881 338.771 410.916 336.758 418.154 353.006C421.748 361.058 423.522 365.036 425.631 368.679C426.35 369.925 428.459 373.52 431.047 378.552C431.862 380.086 432.485 381.428 432.916 382.291C435.121 382.722 437.421 382.866 439.674 382.674C443.221 382.339 446.672 381.284 449.739 379.511C450.123 379.271 450.458 378.936 450.698 378.552C450.938 378.169 451.129 377.738 451.225 377.258C451.465 375.197 448.925 373.616 446.768 371.315C445.09 369.494 444.084 367.385 442.119 363.119C439.722 357.99 439.626 353.245 439.339 343.516C438.668 323.481 438.284 321.228 437.278 318.352C435.36 313.176 432.197 308.479 428.123 304.74L428.075 304.645Z" fill="#24B5B4"/>
<path d="M553.885 357.266C559.732 352.521 564.573 348.256 568.312 344.805C575.07 338.67 577.61 335.842 577.658 332.007C577.658 331.72 577.658 327.071 574.687 324.914C573.872 324.339 573.632 324.482 570.325 323.284C567.353 322.182 565.867 321.654 564.861 320.936C562.464 319.162 562.992 317.916 560.643 316.334C558.582 314.944 557.959 315.807 555.802 314.465C552.831 312.644 553.406 310.774 550.722 309.241C549.044 308.33 547.414 308.234 544.491 308.138C540.848 307.994 540.8 308.713 539.027 308.282C536.966 307.755 536.966 306.796 532.269 303.297C529.489 301.188 528.434 300.757 527.284 300.709C525.846 300.661 524.408 301.045 523.162 301.812C521.389 300.422 519.519 299.175 517.554 298.073C507.537 292.369 497.52 291.507 490.953 291.602C495.219 293.951 499.005 297.114 502.025 300.949C506.195 306.221 508.783 312.548 509.646 319.21C512.569 318.012 515.397 316.478 517.986 314.609C520.286 312.979 522.395 311.11 524.312 309.001C524.983 311.685 525.175 314.465 524.935 317.197C524.6 320.983 523.402 324.626 521.437 327.885C525.079 327.885 528.674 327.071 531.885 325.393C535.863 323.332 539.075 320.121 541.232 316.19C541.711 318.395 541.855 320.696 541.711 322.949C541.423 327.262 540.129 331.432 537.829 335.123C541.375 333.685 544.73 331.768 547.798 329.419C550.77 327.119 553.454 324.434 555.754 321.463C556.617 325.345 557.096 329.323 557.24 333.254C557.528 341.402 556.425 349.502 553.885 357.266Z" fill="white"/>
<path d="M442.64 267.303C429.746 268.454 417.381 272.671 406.453 279.621C395.525 286.571 386.466 296.061 379.947 307.229C382.2 300.135 385.507 293.377 389.821 287.29C393.511 282.066 398.64 274.732 407.363 269.939C421.934 261.935 437.655 265.865 442.64 267.303Z" fill="#010101"/>
<path d="M566.636 262.849C557.769 260.357 548.566 259.542 539.411 260.405C529.25 261.411 519.425 264.431 510.51 269.368C513.913 267.163 518.85 264.048 524.889 260.405C536.823 253.263 538.884 252.64 539.987 252.401C543.246 251.634 552.64 250.483 566.684 262.849H566.636Z" fill="#010101"/>
<path d="M518.47 191.769C516.792 194.214 512.622 199.678 506.535 200.109C501.694 200.445 497.956 197.473 496.23 196.131C486.5 188.558 475.86 182.136 466.37 174.227C457.886 167.181 441.159 162.484 404.924 174.371C409.333 174.371 414.078 174.611 419.111 175.138C429.176 176.144 439.05 178.205 448.684 181.225C445.712 181.656 442.549 182.279 439.242 183.094C432.627 184.724 426.205 187.072 420.118 190.044C424.575 189.9 429.08 190.044 433.538 190.571C440.056 191.29 445.568 191.913 451.56 194.789C454.004 195.987 457.024 198.336 463.111 203.129C472.793 210.702 473.703 212.331 477.921 214.344C482.378 216.405 487.267 217.46 492.204 217.46C490.383 218.275 488.753 219.425 487.459 220.959C486.069 222.588 485.11 224.506 484.583 226.566C485.254 225.991 485.925 225.512 486.692 225.081C487.795 224.41 489.041 223.93 490.287 223.595C489.424 224.649 488.753 225.848 488.178 227.094C485.925 232.126 486.692 236.967 487.171 239.172C488.466 235.481 490.335 231.983 492.635 228.867C501.167 217.316 513.677 213.769 518.374 212.715C517.415 211.852 516.265 211.181 515.019 210.75C513.82 210.318 512.574 210.127 511.28 210.127C513.293 208.114 514.923 205.765 516.121 203.177C517.751 199.678 518.518 195.843 518.374 191.961L518.47 191.769Z" fill="#010101"/>
<path d="M400.844 193.827C383.876 198.86 368.06 207.056 354.208 218.08C338.774 230.35 326.217 245.831 317.254 263.373C321.999 258.053 327.367 253.356 333.31 249.378C339.733 245.064 346.683 241.709 354.016 239.313C349.031 244.873 344.67 250.96 340.979 257.382C333.79 270.036 329.141 283.983 327.367 298.41C338.055 279.478 351.715 262.415 367.82 247.844C386.513 230.973 408.225 217.744 431.806 208.877C422.316 209.117 412.874 210.363 403.623 212.616C392.504 215.348 381.767 219.47 371.702 224.934C374.914 220.908 378.412 216.786 382.151 212.616C388.478 205.57 394.756 199.339 400.844 193.779V193.827Z" fill="#010101"/>
<path d="M205.481 176.139C196.039 174.701 177.059 173.167 155.97 181.603C119.831 196.078 105.595 228.67 102.768 235.524C113.264 224.979 124.767 215.489 137.085 207.197C158.031 193.154 181.133 182.657 205.481 176.091V176.139Z" fill="#24B5B4"/>
<path d="M185.834 210.462C173.133 216.453 133.447 237.111 109.721 284.322C81.7782 339.968 96.0134 392.5 99.5122 404.195C96.4927 389.576 96.5885 374.526 99.7519 359.907C101.909 350.178 105.408 340.783 110.201 332.06C110.584 345.001 112.166 357.942 114.946 370.596C118.684 387.946 124.627 404.722 132.584 420.587C131.673 392.308 135.891 364.077 145.046 337.284C154.919 308.383 170.257 281.734 190.291 258.679C179.843 261.076 169.825 265.198 160.719 270.854C151.181 276.797 142.745 284.37 135.795 293.237C141.115 280.056 147.346 267.259 154.488 254.941C163.594 239.22 174.043 224.314 185.834 210.414V210.462Z" fill="#24B5B4"/>
<path d="M480.41 191.909L469.818 187.451C468.955 190.758 468.907 194.209 469.674 197.516C470.106 199.386 471.831 206.479 478.014 209.163C479.212 209.691 482.519 211.129 486.018 209.547C489.948 207.821 491.051 203.699 491.195 203.076L484.868 200.68C484.437 201.207 484.005 201.734 483.526 202.214C482.903 202.837 482.232 203.46 481.513 203.987C480.267 202.98 479.308 201.59 478.781 200.057C477.391 195.887 480.075 192.244 480.315 191.813L480.41 191.909Z" fill="white"/>
<path d="M434.394 386.938C439.714 388.28 445.178 388.951 450.69 388.903C456.154 388.903 461.57 388.088 466.842 386.65C465.213 389.478 463.295 392.066 461.138 394.463C457.592 398.393 453.374 401.652 448.677 404.145C446.664 402.755 444.794 401.173 443.069 399.448C439.474 395.805 436.503 391.539 434.346 386.89L434.394 386.938Z" fill="white"/>
<path d="M501.306 392.164C499.197 399.833 494.883 406.735 488.844 411.911C483.141 416.8 476.239 419.963 468.81 421.114C470.056 420.634 471.206 419.82 472.069 418.765C472.932 417.711 473.459 416.465 473.699 415.17H468.618C464.304 415.17 462.099 415.17 461.045 414.931C459.128 414.547 455.964 413.397 452.609 409.227C454.095 408.844 455.533 408.364 456.971 407.741C460.23 406.303 463.25 404.29 465.79 401.798C465.023 403.236 464.304 404.722 463.537 406.16C465.359 405.68 467.18 405.201 469.001 404.674C472.165 403.811 475.28 402.852 478.348 401.942C477.485 402.996 476.478 404.147 475.376 405.297C474.226 406.447 473.075 407.502 472.021 408.412C475.855 407.597 479.594 406.399 483.237 404.818C490.043 401.846 496.178 397.532 501.402 392.26L501.306 392.164Z" fill="white"/>
<path d="M230.077 478.775C228.783 444.17 234.103 409.66 245.75 377.068C236.164 386.127 228.399 396.911 222.84 408.894C217.519 420.493 214.404 433.002 213.637 445.704C207.694 435.543 202.997 424.71 199.737 413.399C194.944 396.767 193.171 379.417 194.513 362.162C189.097 375.199 185.598 388.907 184.064 402.95C183.01 412.632 182.914 422.362 183.825 432.044C178.888 419.39 175.054 406.305 172.369 392.981C168.679 374.384 167.241 355.452 168.152 336.52C161.01 351.426 147.973 384.258 153.725 424.998C160.723 474.605 192.021 510.936 204.099 521.002C205.633 521.529 207.167 522.056 208.652 522.535C207.79 519.707 203.764 512.182 200.984 499.385C198.3 486.876 197.724 474.03 199.258 461.329C201.367 472.64 204.53 483.712 208.7 494.4C213.206 505.904 218.814 516.88 225.476 527.232C229.31 528.143 233.145 528.958 236.979 529.677C233.049 512.949 230.748 495.886 230.077 478.727V478.775Z" fill="#24B5B4"/>
</svg>
